<svg width="20" height="20" viewBox="0 0 20 20" fill="none" xmlns="http://www.w3.org/2000/svg">
<g clip-path="url(#clip0_374_2875)">
<path d="M10.0366 19.5747C15.3217 19.5747 19.6062 15.2902 19.6062 10.0051C19.6062 4.71999 15.3217 0.435547 10.0366 0.435547C4.75148 0.435547 0.467041 4.71999 0.467041 10.0051C0.467041 15.2902 4.75148 19.5747 10.0366 19.5747Z" fill="#F0F0F0"/>
<path d="M2.44518 4.17871C1.69348 5.15671 1.12667 6.28394 0.796631 7.50851H5.77497L2.44518 4.17871Z" fill="#0052B4"/>
<path d="M19.2766 7.50847C18.9466 6.28394 18.3797 5.15671 17.6281 4.17871L14.2983 7.50847H19.2766Z" fill="#0052B4"/>
<path d="M0.796631 12.502C1.12671 13.7265 1.69352 14.8537 2.44518 15.8317L5.77486 12.502H0.796631Z" fill="#0052B4"/>
<path d="M15.863 2.41421C14.885 1.66251 13.7578 1.0957 12.5332 0.765625V5.74393L15.863 2.41421Z" fill="#0052B4"/>
<path d="M4.21045 17.5963C5.18845 18.348 6.31568 18.9148 7.54021 19.2449V14.2666L4.21045 17.5963Z" fill="#0052B4"/>
<path d="M7.54017 0.765625C6.31564 1.0957 5.18841 1.66251 4.21045 2.41417L7.54017 5.74389V0.765625Z" fill="#0052B4"/>
<path d="M12.5332 19.2449C13.7577 18.9148 14.885 18.348 15.8629 17.5963L12.5332 14.2666V19.2449Z" fill="#0052B4"/>
<path d="M14.2983 12.502L17.6281 15.8317C18.3797 14.8537 18.9466 13.7265 19.2766 12.502H14.2983Z" fill="#0052B4"/>
<path d="M19.5252 8.75692H11.2849H11.2848V0.516552C10.8762 0.463358 10.4597 0.435547 10.0366 0.435547C9.61349 0.435547 9.19699 0.463358 8.78841 0.516552V8.75685V8.75688H0.548046C0.494853 9.1655 0.467041 9.58207 0.467041 10.0051C0.467041 10.4282 0.494853 10.8447 0.548046 11.2533H8.78834H8.78838V19.4937C9.19699 19.5469 9.61349 19.5747 10.0366 19.5747C10.4597 19.5747 10.8762 19.5469 11.2848 19.4937V11.2534V11.2533H19.5252C19.5784 10.8447 19.6062 10.4282 19.6062 10.0051C19.6062 9.58207 19.5784 9.1655 19.5252 8.75692Z" fill="#D80027"/>
<path d="M12.5332 12.501L16.8035 16.7713C16.9999 16.575 17.1872 16.3697 17.366 16.1569L13.71 12.501H12.5332V12.501Z" fill="#D80027"/>
<path d="M7.54033 12.501H7.54025L3.27002 16.7712C3.46635 16.9676 3.6716 17.155 3.88438 17.3337L7.54033 13.6777V12.501Z" fill="#D80027"/>
<path d="M7.5403 7.50866V7.50859L3.27003 3.23828C3.07363 3.43461 2.88628 3.63987 2.70752 3.85264L6.36351 7.50863L7.5403 7.50866Z" fill="#D80027"/>
<path d="M12.5332 7.5086L16.8035 3.23826C16.6072 3.04185 16.4019 2.8545 16.1892 2.67578L12.5332 6.33177V7.5086Z" fill="#D80027"/>
</g>
<defs>
<clipPath id="clip0_374_2875">
<rect width="19.1391" height="19.1391" fill="white" transform="translate(0.467041 0.435547)"/>
</clipPath>
</defs>
</svg>
