<svg width="38" height="24" viewBox="0 0 38 24" fill="none" xmlns="http://www.w3.org/2000/svg">
<path d="M9.0828 23.3026C10.0263 22.4712 10.967 21.6372 11.9141 20.8094C12.8685 19.9753 13.8274 19.1466 14.7862 18.3179C15.3087 17.8666 15.8365 17.4234 16.359 16.9721C16.5482 16.8083 16.7194 16.8127 16.914 16.9712C17.977 17.8364 19.0473 18.6927 20.1094 19.5596C20.2914 19.7083 20.4072 19.7581 20.6273 19.5748C21.9474 18.4737 23.2866 17.3958 24.6185 16.3081C25.2469 15.7945 25.8762 15.2809 26.4973 14.7584C26.6983 14.5892 26.8522 14.6008 27.0342 14.786C27.2724 15.0281 27.5313 15.2488 27.8247 15.5185C28.1986 14.2083 28.5662 12.9755 28.7999 11.6545C27.3864 11.9153 26.0473 12.1619 24.6221 12.4245C24.8793 12.6746 25.0884 12.8802 25.2994 13.0823C25.3492 13.1295 25.4243 13.1588 25.4587 13.2131C25.533 13.3324 25.6625 13.4802 25.6371 13.5852C25.5873 13.7917 25.4415 13.943 25.1681 13.9359C23.4278 13.8941 21.6866 13.8629 19.9455 13.8344C19.7789 13.8318 19.7155 13.7801 19.7019 13.6155C19.6684 13.2016 19.6883 13.1686 20.1166 13.0858C21.1995 12.8758 21.8089 12.0943 21.8216 11.1116C21.8324 10.249 21.5101 9.65534 20.5594 9.31087C19.9853 9.10258 19.3823 8.96907 18.7937 8.79816C18.4669 8.70381 18.1726 8.55249 18.0368 8.22404C17.8086 7.67128 18.2595 7.07312 18.9359 7.0215C19.4583 6.98144 19.9916 7.14344 20.2035 7.77898C20.2253 7.84307 20.314 7.92585 20.3756 7.92941C20.7386 7.94989 21.1026 7.95078 21.4666 7.95523C21.6251 7.95701 21.6541 7.85375 21.6378 7.72914C21.5345 6.89955 21.061 6.25778 20.1492 6.01478C19.7173 5.89995 19.7137 5.91242 19.7064 5.47715C19.6992 5.0588 19.6729 5.03298 19.2528 5.03298C19.1659 5.03298 19.0781 5.02853 18.9911 5.03209C18.4696 5.04901 18.5719 4.94842 18.4777 5.50919C18.4424 5.72015 18.3981 5.851 18.1509 5.9231C17.1965 6.20259 16.4839 7.10962 16.4803 7.99706C16.4767 8.92189 17.02 9.63398 17.9272 9.89478C18.4669 10.0497 19.0156 10.1814 19.5416 10.3728C19.7807 10.46 20.036 10.6273 20.1745 10.8303C20.4733 11.2709 20.2678 11.7881 19.7445 11.9598C19.2265 12.1299 18.6923 12.1236 18.2197 11.8263C18.0477 11.7186 17.958 11.489 17.8168 11.327C17.7298 11.2273 17.6221 11.0875 17.5107 11.076C17.1748 11.0395 16.8325 11.0582 16.4921 11.0537C16.3554 11.0519 16.3083 11.1027 16.3318 11.2424C16.493 12.1913 17.125 12.8366 18.0875 13.0369C18.2876 13.0787 18.5293 13.0636 18.4904 13.4018C18.4479 13.773 18.4723 13.7721 18.0821 13.7775C16.8452 13.7944 15.6075 13.7944 14.3706 13.8371C12.9454 13.8861 11.5194 13.9457 10.0969 14.0489C8.66901 14.1522 7.24203 14.2848 5.82229 14.462C4.88877 14.5786 3.9634 14.7744 3.04527 14.9791C2.70754 15.0548 2.38339 15.2319 2.08278 15.4117C1.84827 15.5523 1.86819 15.7419 2.09546 15.9066C2.55905 16.2404 3.09779 16.4158 3.6483 16.5235C4.64882 16.7193 5.65206 16.9142 6.66345 17.0379C7.97997 17.1991 9.30464 17.2961 10.6275 17.4065C11.2595 17.459 11.8933 17.4786 12.5271 17.5168C12.6204 17.5222 12.7127 17.5462 12.8585 17.5702C12.8033 17.6824 12.7743 17.775 12.7182 17.8471C12.6503 17.9343 12.5498 17.9966 12.48 18.0821C12.0563 18.5992 11.4931 18.5485 10.9109 18.4817C10.489 18.4328 10.0589 18.4479 9.63513 18.4061C8.51418 18.2957 7.38962 18.2049 6.27773 18.0384C5.21835 17.88 4.16441 17.669 3.12314 17.4171C2.24305 17.2053 1.4046 16.8679 0.748152 16.2084C0.365147 15.8238 0.27913 15.3236 0.585171 14.8785C0.796141 14.5706 1.06325 14.2875 1.35028 14.0436C2.73652 12.8615 4.13 11.6866 5.53707 10.5277C7.23841 9.12751 8.95151 7.74249 10.6682 6.36103C11.5058 5.68722 12.3642 5.03743 13.2116 4.37519C14.9003 3.05604 16.5872 1.736 18.2749 0.416853C18.2885 0.406172 18.3021 0.395491 18.3157 0.384809C18.9703 -0.119885 19.1414 -0.132347 19.7934 0.372348C21.3245 1.55709 22.8492 2.74895 24.3695 3.94704C25.7059 5.00005 27.036 6.06106 28.3616 7.12742C29.086 7.71045 29.7931 8.31305 30.5102 8.90587C31.5796 9.78975 32.6562 10.6647 33.7173 11.5566C34.6174 12.3123 35.5038 13.0841 36.3893 13.8558C36.6945 14.1219 36.9978 14.3934 37.2694 14.6916C37.7357 15.2034 37.7004 15.766 37.2151 16.2662C36.7434 16.7531 36.1304 16.9943 35.5119 17.2222C34.5612 17.5738 33.5779 17.8052 32.5719 17.9423C31.595 18.0758 30.618 18.2067 29.6419 18.3402C29.3639 18.3785 29.0425 18.0598 29.0108 17.71C28.9837 17.4038 29.0697 17.329 29.3839 17.2979C30.082 17.2284 30.781 17.1617 31.4736 17.0531C32.4551 16.8982 33.4385 16.7371 34.4064 16.5172C34.9044 16.4042 35.3897 16.1923 35.8451 15.9573C36.1956 15.7767 36.182 15.5123 35.8171 15.3574C35.2955 15.1367 34.7514 14.9382 34.1972 14.826C33.2148 14.6275 32.2197 14.4851 31.2264 14.3507C30.6089 14.267 29.9824 14.2448 29.3612 14.1842C29.143 14.1629 29.0425 14.227 28.9809 14.4477C28.7899 15.1367 28.5699 15.8185 28.3607 16.503C28.3408 16.568 28.3227 16.6338 28.2964 16.6961C28.1968 16.9356 28.0845 16.9632 27.8917 16.7932C27.5938 16.5306 27.2932 16.2698 27.0062 15.9965C26.8884 15.8853 26.8061 15.8746 26.6784 15.9805C25.7584 16.7504 24.8367 17.5177 23.9095 18.2788C23.5437 18.5787 23.1562 18.8538 22.7913 19.1546C22.1222 19.7065 21.4621 20.2699 20.7975 20.828C20.7251 20.8886 20.6472 20.9438 20.572 21.0016C20.3267 21.1903 20.1872 21.1859 19.95 20.9847C18.916 20.1088 17.8783 19.2374 16.8506 18.3544C16.6868 18.2138 16.598 18.2298 16.4432 18.366C15.2589 19.411 14.0646 20.4453 12.8748 21.485C12.2311 22.0475 11.5882 22.6109 10.9517 23.1815C10.7814 23.3337 10.6085 23.4112 10.3685 23.3987C9.94479 23.3773 9.51923 23.3925 9.09367 23.3925C9.08914 23.3622 9.08371 23.3319 9.07918 23.3008L9.0828 23.3026ZM18.5149 2.82817C18.4958 2.81215 18.4768 2.79524 18.4578 2.77922C18.389 2.85131 18.3166 2.91985 18.2532 2.9964C18.0612 3.22872 17.8684 3.46015 17.6828 3.69781C16.8452 4.76773 15.9814 5.81984 15.1801 6.91557C14.1814 8.28012 13.2307 9.67938 12.27 11.0706C12.1007 11.3154 11.9069 11.4151 11.6036 11.4213C11.0404 11.4329 10.4763 11.4801 9.91582 11.5397C9.16701 11.6198 8.42183 11.7266 7.7201 11.8165C11.1871 8.76523 14.5246 5.52166 17.7081 2.11964C17.489 2.23981 17.2789 2.37154 17.087 2.52464C16.0013 3.39339 14.9057 4.25057 13.8418 5.14425C12.4538 6.3103 11.0639 7.47723 9.72929 8.70114C8.6165 9.72121 7.57704 10.8205 6.51676 11.8949C6.32119 12.0934 6.11203 12.2224 5.84039 12.2919C5.48093 12.3835 5.12328 12.4895 4.77921 12.6257C4.43152 12.7636 4.10193 12.9461 3.7642 13.109C3.77597 13.1392 3.78684 13.1686 3.79861 13.1989C4.39892 13.0582 4.99923 12.9176 5.6747 12.7592C5.43294 13.1259 5.23827 13.4196 5.0445 13.7143C5.06171 13.7303 5.07891 13.7463 5.09612 13.7623C5.17851 13.708 5.26272 13.6564 5.3424 13.5985C5.67741 13.3547 6.00428 13.0983 6.34926 12.8687C6.51043 12.761 6.69966 12.6621 6.888 12.631C8.21901 12.4147 9.55364 12.2144 10.8874 12.0159C11.1201 11.9812 11.3573 11.9794 11.6063 11.9616C11.4279 12.4058 11.2622 12.8188 11.0965 13.2309C11.1771 13.2389 11.2079 13.2238 11.2323 13.2024C11.6353 12.8509 12.0355 12.4957 12.4411 12.1477C12.5298 12.072 12.6304 11.9821 12.739 11.9607C13.0767 11.8913 13.4217 11.853 13.7631 11.8005C14.1388 11.7427 14.5137 11.6821 14.8885 11.6234C14.8885 11.5958 14.8867 11.5682 14.8858 11.5406C14.5807 11.5121 14.2756 11.473 13.9695 11.4596C13.6562 11.4454 13.342 11.456 12.9835 11.456C15.1004 8.7047 16.7058 5.70324 18.5158 2.82817H18.5149ZM31.0508 12.4165C29.3386 10.4716 27.4254 8.73497 25.3881 7.12742C27.0922 9.08033 28.9909 10.8321 31.0508 12.4165Z" fill="#FFE400"/>
</svg>
