<svg width="69" height="68" viewBox="0 0 69 68" fill="none" xmlns="http://www.w3.org/2000/svg">
<path d="M0.586914 10.4615C0.586914 4.68379 5.2707 0 11.0485 0H58.1254C63.9031 0 68.5869 4.68379 68.5869 10.4615V57.5385C68.5869 63.3162 63.9031 68 58.1254 68H11.0485C5.2707 68 0.586914 63.3162 0.586914 57.5385V10.4615Z" fill="#FFE400"/>
<path d="M34.352 15.6016C36.8636 15.6016 39.0001 15.9242 40.7615 16.57C42.5555 17.1835 44.0399 17.991 45.2141 18.9921C46.4209 19.9608 47.3831 21.0103 48.1007 22.1405C48.2193 22.3141 48.1552 22.5515 47.9674 22.6462L42.2969 25.5008C42.0705 25.6148 41.7959 25.5444 41.6367 25.3471C41.4102 25.0662 41.1511 24.7884 40.8594 24.514C40.2397 23.9005 39.3915 23.3839 38.3151 22.9641C37.2713 22.5121 35.9666 22.286 34.401 22.286C32.1504 22.2861 30.2584 22.8671 28.7254 24.0296C27.225 25.1598 26.0832 26.613 25.3003 28.389C24.5501 30.165 24.1753 32.022 24.1753 33.9595C24.1753 35.897 24.5501 37.7701 25.3003 39.5785C26.0832 41.3545 27.225 42.8239 28.7254 43.9864C30.2584 45.1166 32.1504 45.6819 34.401 45.6819C35.9666 45.6819 37.2713 45.4717 38.3151 45.0519C39.3915 44.6321 40.2397 44.1155 40.8594 43.502C41.1791 43.1855 41.4597 42.8726 41.701 42.5638C41.8582 42.3627 42.1345 42.2907 42.3625 42.4054L47.9057 45.1958C48.1748 45.3313 48.2673 45.6731 48.1007 45.9241C47.3831 47.022 46.4209 48.0714 45.2141 49.0724C44.0399 50.0412 42.5555 50.8483 40.7615 51.4941C39.0001 52.1077 36.8636 52.4149 34.352 52.4149C31.3512 52.4149 28.7254 51.8979 26.4748 50.8646C24.2568 49.7989 22.3975 48.3941 20.8971 46.6503C19.3967 44.8743 18.2712 42.8883 17.521 40.6925C16.7708 38.4966 16.3955 36.2522 16.3955 33.9595C16.3955 31.6991 16.7708 29.4708 17.521 27.275C18.2712 25.0792 19.3967 23.1095 20.8971 21.3657C22.3975 19.5896 24.2567 18.1848 26.4748 17.1515C28.7254 16.1181 31.3512 15.6016 34.352 15.6016Z" fill="#131313"/>
<path d="M60.1059 13.1337C60.4189 12.9939 60.7832 13.02 61.0743 13.2065C61.3848 13.4053 61.5643 13.7561 61.5439 14.1242L61.0326 23.3279C61.013 23.6804 60.8127 23.998 60.5031 24.1677C60.1934 24.3375 59.8178 24.3354 59.51 24.1622L51.3292 19.5606C51.0033 19.3772 50.8035 19.0304 50.8082 18.6565C50.813 18.2824 51.0216 17.9405 51.3522 17.7655L60.0442 13.1639L60.1059 13.1337ZM53.9646 18.696L59.0813 21.5745L59.401 15.818L53.9646 18.696Z" fill="#FFE400"/>
<path d="M59.2958 22.8682L52.6471 19.1283C52.2945 18.93 52.301 18.4201 52.6585 18.2308L59.7228 14.4909C60.0744 14.3047 60.4946 14.5739 60.4725 14.9712L60.057 22.4509C60.036 22.8289 59.6258 23.0538 59.2958 22.8682Z" fill="#131313"/>
<path d="M54.3163 19.9579C54.9864 19.1085 56.2123 18.925 57.1046 19.5581C57.9969 20.1914 58.2283 21.4092 57.6477 22.3221L57.589 22.4098L46.3404 38.2596L46.2774 38.3439C45.6073 39.1935 44.3811 39.3773 43.4887 38.744C42.5677 38.0903 42.351 36.8135 43.0047 35.8924L54.2533 20.0421L54.3163 19.9579Z" fill="#131313"/>
<path d="M15.7164 57.2764C14.7256 58.6508 12.808 58.9616 11.4337 57.9707C10.0595 56.9799 9.74863 55.0627 10.7394 53.6884L15.7164 57.2764ZM38.8646 25.8327C39.938 25.7683 40.9669 26.2708 41.5761 27.157L47.2007 35.3377C48.1605 36.7339 47.8068 38.644 46.4106 39.6039C45.0145 40.5636 43.1047 40.2098 42.1449 38.8138L39.4039 34.8273L36.1415 41.0559C35.646 42.0016 34.6944 42.6217 33.6291 42.693C32.5637 42.7644 31.5381 42.2767 30.9209 41.4054L29.056 38.7729L15.7164 57.2764L10.7394 53.6884L26.5896 31.7028L26.7024 31.5559C27.2857 30.8418 28.1623 30.4249 29.0909 30.4287C30.0814 30.4329 31.0091 30.915 31.5816 31.7232L33.031 33.7699L36.3309 27.4715L36.379 27.3834C36.89 26.4808 37.8246 25.8951 38.8646 25.8327Z" fill="#FFE400"/>
<path d="M14.8868 56.6782C14.2262 57.5944 12.948 57.8019 12.0317 57.1413C11.1155 56.4808 10.9085 55.2025 11.569 54.2863L14.8868 56.6782ZM38.9258 26.8533C39.6415 26.8104 40.3275 27.1454 40.7337 27.7361L46.3578 35.9169L46.4153 36.005C46.9825 36.9265 46.733 38.1409 45.8312 38.7609C44.9295 39.3808 43.7063 39.1789 43.049 38.3194L42.9873 38.2343L39.2851 32.8494L35.2356 40.5811C34.9053 41.2115 34.2711 41.6249 33.561 41.6725C32.8508 41.7201 32.1667 41.3952 31.7552 40.8143L29.0632 37.0139L14.8868 56.6782L11.569 54.2863L27.4193 32.3003L27.4942 32.2028C27.883 31.7267 28.4675 31.4489 29.0866 31.4515C29.7469 31.4543 30.3651 31.7756 30.7468 32.3143L33.1621 35.7241L37.2367 27.946L37.3027 27.8294C37.6499 27.2604 38.255 26.8935 38.9258 26.8533Z" fill="#131313"/>
</svg>
