<svg width="19" height="25" viewBox="0 0 19 25" fill="none" xmlns="http://www.w3.org/2000/svg">
<path fill-rule="evenodd" clip-rule="evenodd" d="M0.46875 19.244C0.727661 19.244 0.9375 19.0341 0.9375 18.7752V1.33789H17.0834V2.27557C17.0834 2.5343 17.2932 2.74432 17.5521 2.74432C17.811 2.74432 18.0209 2.5343 18.0209 2.27557V0.869141C18.0209 0.610229 17.811 0.400391 17.5521 0.400391H0.46875C0.209839 0.400391 0 0.610229 0 0.869141V18.7752C0 19.0341 0.209839 19.244 0.46875 19.244Z" fill="#FFE400"/>
<path fill-rule="evenodd" clip-rule="evenodd" d="M17.5521 5.55664C17.2932 5.55664 17.0834 5.76648 17.0834 6.02539V18.5868H12.6762C12.4173 18.5868 12.2075 18.7966 12.2075 19.0555V23.4627H0.9375V22.525C0.9375 22.2663 0.727661 22.0563 0.46875 22.0563C0.209839 22.0563 0 22.2663 0 22.525V23.9315C0 24.1904 0.209839 24.4002 0.46875 24.4002H12.6762C12.6786 24.4002 12.681 24.3998 12.6835 24.3998C12.6964 24.3997 12.7092 24.3991 12.722 24.398C12.7299 24.3973 12.7375 24.3956 12.7452 24.3945C12.7526 24.3934 12.7601 24.3927 12.7672 24.3912C12.7751 24.3898 12.7828 24.3874 12.7906 24.3856C12.7976 24.3837 12.8047 24.3823 12.8117 24.3802C12.819 24.3781 12.826 24.3751 12.8331 24.3726C12.8405 24.37 12.8478 24.3678 12.8549 24.3649C12.8613 24.3621 12.8676 24.3588 12.8738 24.3559C12.8815 24.3524 12.8892 24.3491 12.8965 24.3453C12.9023 24.3422 12.908 24.3385 12.9137 24.335C12.9212 24.3306 12.9287 24.3266 12.9359 24.3217C12.9426 24.3173 12.9489 24.3121 12.9553 24.3074C12.9613 24.303 12.9673 24.299 12.973 24.2942C12.9851 24.2845 12.9966 24.274 13.0076 24.2629L17.8835 19.387C17.8984 19.3721 17.9117 19.3562 17.9242 19.3397C17.9275 19.3357 17.9306 19.3315 17.9335 19.3273C17.9453 19.3106 17.9564 19.2938 17.9659 19.2758C17.9665 19.2747 17.9669 19.2736 17.9674 19.2725C17.9762 19.2555 17.9839 19.2379 17.9905 19.22C17.9923 19.2152 17.9941 19.2103 17.9958 19.2053C18.0022 19.1863 18.0079 19.1671 18.0119 19.1473C18.0119 19.1469 18.0119 19.1465 18.0121 19.146C18.0157 19.1268 18.0179 19.107 18.0192 19.0872C18.0198 19.0819 18.02 19.0766 18.0201 19.0713C18.0203 19.066 18.0209 19.0609 18.0209 19.0555V6.02539C18.0209 5.76648 17.811 5.55664 17.5521 5.55664ZM13.145 22.7999V19.5243H16.4203L13.145 22.7999Z" fill="#FFE400"/>
<path fill-rule="evenodd" clip-rule="evenodd" d="M4.41675 14.8749C5.58899 13.9305 7.26331 13.3887 9.0105 13.3887C10.7577 13.3887 12.432 13.9305 13.6042 14.8749C13.6909 14.9449 13.7949 14.9788 13.8981 14.9788C14.0349 14.9788 14.1708 14.9191 14.2634 14.8041C14.4258 14.6025 14.394 14.3073 14.1924 14.1449C12.8566 13.0686 10.9677 12.4512 9.0105 12.4512C7.05328 12.4512 5.16437 13.0686 3.82861 14.1449C3.62683 14.3073 3.59515 14.6025 3.75757 14.8041C3.91998 15.0055 4.21515 15.0375 4.41675 14.8749Z" fill="#FFE400"/>
<path fill-rule="evenodd" clip-rule="evenodd" d="M14.2297 5.45959C14.0468 5.27649 13.7499 5.27649 13.5668 5.45959L12.5076 6.51886L11.4481 5.45959C11.2652 5.27649 10.9684 5.27649 10.7853 5.45959C10.6022 5.64252 10.6022 5.93933 10.7853 6.12244L11.8445 7.1817L10.7853 8.24115C10.6022 8.42407 10.6022 8.72089 10.7853 8.90399C10.9682 9.0871 11.265 9.0871 11.4481 8.90399L12.5076 7.84473L13.5668 8.90399C13.6584 8.99554 13.7783 9.04132 13.8983 9.04132C14.0182 9.04132 14.1381 8.99554 14.2297 8.90399C14.4128 8.72089 14.4128 8.42407 14.2297 8.24115L13.1704 7.1817L14.2297 6.12244C14.4128 5.93933 14.4128 5.64252 14.2297 5.45959Z" fill="#FFE400"/>
<path fill-rule="evenodd" clip-rule="evenodd" d="M3.79114 8.90417C3.97406 9.0871 4.27087 9.0871 4.45398 8.90399L5.51324 7.84473L6.57251 8.90399C6.66406 8.99554 6.784 9.04132 6.90393 9.04132C7.02386 9.04132 7.14398 8.99554 7.23535 8.90399C7.41846 8.72107 7.41846 8.42426 7.23553 8.24115L6.17627 7.18188L7.23553 6.12244C7.41846 5.93951 7.41846 5.6427 7.23535 5.45959C7.05243 5.27667 6.75562 5.27649 6.57251 5.45959L5.51324 6.51886L4.45398 5.45959C4.27087 5.27649 3.97406 5.27649 3.79114 5.45959C3.60803 5.6427 3.60803 5.93951 3.79114 6.12244L4.8504 7.18188L3.79114 8.24115C3.60803 8.42426 3.60803 8.72107 3.79114 8.90417Z" fill="#FFE400"/>
<path fill-rule="evenodd" clip-rule="evenodd" d="M0.46875 21.1191C0.726929 21.1191 0.9375 20.9088 0.9375 20.6504C0.9375 20.3922 0.726929 20.1816 0.46875 20.1816C0.210571 20.1816 0 20.3922 0 20.6504C0 20.9088 0.210571 21.1191 0.46875 21.1191Z" fill="#FFE400"/>
<path fill-rule="evenodd" clip-rule="evenodd" d="M17.5522 3.68164C17.2941 3.68164 17.0835 3.89203 17.0835 4.15039C17.0835 4.40857 17.2941 4.61914 17.5522 4.61914C17.8104 4.61914 18.021 4.40857 18.021 4.15039C18.021 3.89203 17.8104 3.68164 17.5522 3.68164Z" fill="#FFE400"/>
</svg>
