<svg width="22" height="22" viewBox="0 0 22 22" fill="none" xmlns="http://www.w3.org/2000/svg">
<path d="M7.625 9.07578C7.62692 9.17397 7.66727 9.26749 7.73739 9.33625C7.80751 9.40502 7.9018 9.44353 8.00001 9.44353C8.09822 9.44353 8.19251 9.405 8.26263 9.33624C8.33274 9.26747 8.37309 9.17395 8.375 9.07576C8.37308 8.97757 8.33273 8.88405 8.26261 8.81528C8.19249 8.74652 8.0982 8.708 7.99999 8.70801C7.90178 8.70801 7.80749 8.74653 7.73737 8.8153C7.66726 8.88407 7.62691 8.97759 7.625 9.07578Z" fill="#FFE400"/>
<path d="M11 14.2164C10.9981 14.1182 10.9577 14.0247 10.8876 13.9559C10.8175 13.8871 10.7232 13.8486 10.625 13.8486C10.5268 13.8486 10.4325 13.8872 10.3624 13.9559C10.2923 14.0247 10.2519 14.1182 10.25 14.2164C10.2519 14.3146 10.2923 14.4081 10.3624 14.4769C10.4325 14.5456 10.5268 14.5842 10.625 14.5842C10.7232 14.5842 10.8175 14.5456 10.8876 14.4769C10.9577 14.4081 10.9981 14.3146 11 14.2164Z" fill="#FFE400"/>
<path d="M9.92051 3.90039C10.0187 3.89847 10.1122 3.85812 10.181 3.788C10.2497 3.71788 10.2883 3.62359 10.2883 3.52538C10.2883 3.42717 10.2497 3.33288 10.181 3.26276C10.1122 3.19265 10.0187 3.1523 9.92048 3.15039C9.82229 3.15231 9.72877 3.19266 9.66001 3.26278C9.59125 3.3329 9.55273 3.42719 9.55273 3.5254C9.55274 3.62361 9.59126 3.7179 9.66003 3.78802C9.72879 3.85813 9.82232 3.89848 9.92051 3.90039Z" fill="#FFE400"/>
<path d="M11.7017 6.52519C11.7035 6.62341 11.7439 6.71698 11.814 6.78579C11.8841 6.85459 11.9784 6.89313 12.0767 6.89313C12.1749 6.89313 12.2692 6.85458 12.3394 6.78577C12.4095 6.71696 12.4498 6.62339 12.4517 6.52517C12.4498 6.42694 12.4095 6.33337 12.3393 6.26457C12.2692 6.19577 12.1749 6.15722 12.0766 6.15723C11.9784 6.15723 11.8841 6.19578 11.814 6.26459C11.7438 6.33339 11.7035 6.42697 11.7017 6.52519Z" fill="#FFE400"/>
<path d="M16.6251 6.15039C16.7233 6.14847 16.8168 6.10812 16.8856 6.038C16.9543 5.96788 16.9928 5.87359 16.9928 5.77538C16.9928 5.67717 16.9543 5.58288 16.8856 5.51276C16.8168 5.44265 16.7233 5.4023 16.6251 5.40039C16.5269 5.40231 16.4334 5.44266 16.3646 5.51278C16.2958 5.5829 16.2573 5.67719 16.2573 5.7754C16.2573 5.87361 16.2958 5.9679 16.3646 6.03802C16.4334 6.10813 16.5269 6.14848 16.6251 6.15039Z" fill="#FFE400"/>
<path d="M18.5001 4.27539C18.5983 4.27347 18.6918 4.23312 18.7606 4.163C18.8293 4.09288 18.8678 3.99859 18.8678 3.90038C18.8678 3.80217 18.8293 3.70788 18.7606 3.63776C18.6918 3.56765 18.5983 3.5273 18.5001 3.52539C18.4019 3.52731 18.3084 3.56766 18.2396 3.63778C18.1708 3.7079 18.1323 3.80219 18.1323 3.9004C18.1323 3.99861 18.1708 4.0929 18.2396 4.16302C18.3084 4.23313 18.4019 4.27348 18.5001 4.27539Z" fill="#FFE400"/>
<path d="M17.3453 15.1836C17.2471 15.1855 17.1536 15.2259 17.0848 15.296C17.0161 15.3661 16.9775 15.4604 16.9775 15.5586C16.9775 15.6568 17.0161 15.7511 17.0848 15.8212C17.1536 15.8913 17.2471 15.9317 17.3453 15.9336C17.4435 15.9317 17.537 15.8913 17.6058 15.8212C17.6745 15.7511 17.7131 15.6568 17.7131 15.5586C17.7131 15.4604 17.6745 15.3661 17.6058 15.296C17.537 15.2259 17.4435 15.1855 17.3453 15.1836Z" fill="#FFE400"/>
<path d="M13.3385 17.8086C13.2403 17.8105 13.1467 17.8509 13.078 17.921C13.0092 17.9911 12.9707 18.0854 12.9707 18.1836C12.9707 18.2818 13.0092 18.3761 13.078 18.4462C13.1468 18.5163 13.2403 18.5567 13.3385 18.5586C13.4367 18.5567 13.5302 18.5163 13.5989 18.4462C13.6677 18.3761 13.7062 18.2818 13.7062 18.1836C13.7062 18.0854 13.6677 17.9911 13.5989 17.921C13.5302 17.8509 13.4366 17.8105 13.3385 17.8086Z" fill="#FFE400"/>
<path d="M3.17927 16.9131C3.08108 16.915 2.98756 16.9554 2.9188 17.0255C2.85004 17.0956 2.81152 17.1899 2.81152 17.2881C2.81153 17.3863 2.85005 17.4806 2.91882 17.5507C2.98758 17.6208 3.08111 17.6612 3.1793 17.6631C3.27749 17.6612 3.37101 17.6208 3.43977 17.5507C3.50853 17.4806 3.54705 17.3863 3.54705 17.2881C3.54704 17.1899 3.50852 17.0956 3.43975 17.0255C3.37099 16.9553 3.27746 16.915 3.17927 16.9131Z" fill="#FFE400"/>
<path d="M13.6328 2.93054C13.6821 2.93055 13.7308 2.92086 13.7763 2.90202C13.8218 2.88318 13.8632 2.85556 13.898 2.82074C13.9328 2.78591 13.9605 2.74457 13.9793 2.69906C13.9981 2.65356 14.0078 2.60479 14.0078 2.55554V1.50195C14.0078 1.4025 13.9683 1.30711 13.898 1.23679C13.8277 1.16646 13.7323 1.12695 13.6328 1.12695C13.5334 1.12695 13.438 1.16646 13.3676 1.23679C13.2973 1.30711 13.2578 1.4025 13.2578 1.50195V2.55554C13.2578 2.60479 13.2675 2.65356 13.2863 2.69906C13.3052 2.74457 13.3328 2.78591 13.3676 2.82074C13.4024 2.85556 13.4438 2.88318 13.4893 2.90202C13.5348 2.92086 13.5836 2.93055 13.6328 2.93054Z" fill="#FFE400"/>
<path d="M14.5108 3.80859H15.5642C15.6637 3.80859 15.7591 3.76908 15.8294 3.69876C15.8997 3.62843 15.9392 3.53305 15.9392 3.43359C15.9392 3.33414 15.8997 3.23875 15.8294 3.16843C15.7591 3.0981 15.6637 3.05859 15.5642 3.05859H14.5108C14.4126 3.06051 14.3191 3.10086 14.2503 3.17098C14.1816 3.24109 14.1431 3.33538 14.1431 3.43359C14.1431 3.5318 14.1816 3.62609 14.2503 3.69621C14.3191 3.76633 14.4126 3.80668 14.5108 3.80859Z" fill="#FFE400"/>
<path d="M13.6328 5.73877C13.6821 5.73878 13.7308 5.72909 13.7763 5.71025C13.8218 5.69141 13.8632 5.66379 13.898 5.62896C13.9328 5.59414 13.9605 5.55279 13.9793 5.50729C13.9981 5.46179 14.0078 5.41302 14.0078 5.36377V4.31055C14.0078 4.21109 13.9683 4.11571 13.898 4.04538C13.8277 3.97506 13.7323 3.93555 13.6328 3.93555C13.5334 3.93555 13.438 3.97506 13.3676 4.04538C13.2973 4.11571 13.2578 4.21109 13.2578 4.31055V5.36377C13.2578 5.41302 13.2675 5.46179 13.2863 5.50729C13.3052 5.55279 13.3328 5.59414 13.3676 5.62896C13.4024 5.66379 13.4438 5.69141 13.4893 5.71025C13.5348 5.72909 13.5836 5.73878 13.6328 5.73877Z" fill="#FFE400"/>
<path d="M11.7017 3.80859H12.755C12.8532 3.80668 12.9467 3.76632 13.0154 3.6962C13.0842 3.62608 13.1227 3.53179 13.1227 3.43358C13.1227 3.33537 13.0842 3.24108 13.0154 3.17097C12.9467 3.10085 12.8531 3.0605 12.7549 3.05859H11.7017C11.6036 3.06051 11.51 3.10086 11.4413 3.17098C11.3725 3.24109 11.334 3.33538 11.334 3.43359C11.334 3.5318 11.3725 3.62609 11.4413 3.69621C11.51 3.76633 11.6036 3.80668 11.7017 3.80859Z" fill="#FFE400"/>
<path d="M18.4849 6.76913V7.82236C18.4849 7.92181 18.5244 8.0172 18.5947 8.08752C18.665 8.15785 18.7604 8.19736 18.8599 8.19736C18.9593 8.19736 19.0547 8.15785 19.125 8.08752C19.1954 8.0172 19.2349 7.92181 19.2349 7.82236V6.76913C19.2329 6.67094 19.1926 6.57741 19.1225 6.50865C19.0524 6.43989 18.9581 6.40137 18.8599 6.40137C18.7617 6.40137 18.6674 6.43989 18.5972 6.50865C18.5271 6.57741 18.4868 6.67094 18.4849 6.76913Z" fill="#FFE400"/>
<path d="M20.7912 8.3252H19.7378C19.6383 8.3252 19.543 8.3647 19.4726 8.43503C19.4023 8.50536 19.3628 8.60074 19.3628 8.7002C19.3628 8.79965 19.4023 8.89503 19.4726 8.96536C19.543 9.03569 19.6383 9.0752 19.7378 9.0752H20.7912C20.8894 9.07328 20.9829 9.03293 21.0517 8.96281C21.1204 8.8927 21.159 8.7984 21.159 8.7002C21.159 8.60199 21.1204 8.50769 21.0517 8.43758C20.9829 8.36746 20.8894 8.32711 20.7912 8.3252Z" fill="#FFE400"/>
<path d="M18.8599 9.20313C18.8106 9.20311 18.7618 9.2128 18.7163 9.23164C18.6708 9.25049 18.6295 9.27811 18.5947 9.31293C18.5598 9.34776 18.5322 9.3891 18.5134 9.4346C18.4945 9.48011 18.4849 9.52888 18.4849 9.57812V10.6314C18.4849 10.7308 18.5244 10.8262 18.5947 10.8965C18.665 10.9668 18.7604 11.0064 18.8599 11.0064C18.9593 11.0064 19.0547 10.9668 19.125 10.8965C19.1954 10.8262 19.2349 10.7308 19.2349 10.6314V9.57812C19.2349 9.52888 19.2252 9.48011 19.2063 9.4346C19.1875 9.3891 19.1599 9.34776 19.1251 9.31293C19.0902 9.27811 19.0489 9.25049 19.0034 9.23164C18.9579 9.2128 18.9091 9.20311 18.8599 9.20313Z" fill="#FFE400"/>
<path d="M16.5537 8.7002C16.5537 8.74944 16.5634 8.79821 16.5822 8.84372C16.6011 8.88922 16.6287 8.93057 16.6635 8.96539C16.6983 9.00021 16.7397 9.02784 16.7852 9.04668C16.8307 9.06552 16.8795 9.07521 16.9287 9.0752H17.9821C18.0816 9.0752 18.177 9.03569 18.2473 8.96536C18.3176 8.89503 18.3571 8.79965 18.3571 8.7002C18.3571 8.60074 18.3176 8.50536 18.2473 8.43503C18.177 8.3647 18.0816 8.3252 17.9821 8.3252H16.9287C16.8795 8.32518 16.8307 8.33487 16.7852 8.35371C16.7397 8.37255 16.6983 8.40018 16.6635 8.435C16.6287 8.46983 16.6011 8.51117 16.5822 8.55667C16.5634 8.60218 16.5537 8.65095 16.5537 8.7002Z" fill="#FFE400"/>
<path d="M4.625 11.0328V12.086C4.625 12.1855 4.66451 12.2809 4.73484 12.3512C4.80516 12.4215 4.90054 12.461 5 12.461C5.09946 12.461 5.19484 12.4215 5.26517 12.3512C5.33549 12.2809 5.375 12.1855 5.375 12.086V11.0328C5.37309 10.9346 5.33274 10.8411 5.26262 10.7723C5.1925 10.7036 5.09821 10.665 5 10.665C4.90179 10.665 4.8075 10.7036 4.73738 10.7723C4.66726 10.8411 4.62691 10.9346 4.625 11.0328Z" fill="#FFE400"/>
<path d="M5.878 12.5889C5.77981 12.5908 5.68629 12.6311 5.61753 12.7013C5.54877 12.7714 5.51025 12.8657 5.51025 12.9639C5.51026 13.0621 5.54878 13.1564 5.61755 13.2265C5.68631 13.2966 5.77984 13.337 5.87803 13.3389H6.9314C7.02959 13.337 7.12311 13.2966 7.19187 13.2265C7.26064 13.1564 7.29915 13.0621 7.29915 12.9639C7.29915 12.8656 7.26063 12.7714 7.19186 12.7012C7.12309 12.6311 7.02957 12.5908 6.93138 12.5889H5.878Z" fill="#FFE400"/>
<path d="M5.375 14.894V13.8408C5.375 13.7414 5.33549 13.646 5.26517 13.5757C5.19484 13.5053 5.09946 13.4658 5 13.4658C4.90054 13.4658 4.80516 13.5053 4.73484 13.5757C4.66451 13.646 4.625 13.7414 4.625 13.8408V14.894C4.62691 14.9922 4.66726 15.0858 4.73738 15.1545C4.8075 15.2233 4.90179 15.2618 5 15.2618C5.09821 15.2618 5.1925 15.2233 5.26262 15.1545C5.33274 15.0858 5.37309 14.9922 5.375 14.894Z" fill="#FFE400"/>
<path d="M4.12225 12.5889H3.06885C2.96939 12.5889 2.87401 12.6284 2.80368 12.6987C2.73336 12.769 2.69385 12.8644 2.69385 12.9639C2.69385 13.0633 2.73336 13.1587 2.80368 13.229C2.87401 13.2994 2.96939 13.3389 3.06885 13.3389H4.12225C4.22044 13.337 4.31397 13.2966 4.38273 13.2265C4.45149 13.1564 4.49001 13.0621 4.49001 12.9639C4.49001 12.8657 4.45149 12.7714 4.38273 12.7012C4.31397 12.6311 4.22044 12.5908 4.12225 12.5889Z" fill="#FFE400"/>
<path d="M17.3452 17.2881C17.296 17.2881 17.2472 17.2978 17.2017 17.3166C17.1562 17.3354 17.1148 17.3631 17.08 17.3979C17.0452 17.4327 17.0176 17.4741 16.9987 17.5196C16.9799 17.5651 16.9702 17.6138 16.9702 17.6631V18.7167C16.9702 18.8161 17.0097 18.9115 17.0801 18.9818C17.1504 19.0522 17.2458 19.0917 17.3452 19.0917C17.4447 19.0917 17.5401 19.0522 17.6104 18.9818C17.6807 18.9115 17.7202 18.8161 17.7202 18.7167V17.6631C17.7202 17.6138 17.7105 17.5651 17.6917 17.5196C17.6729 17.4741 17.6452 17.4327 17.6104 17.3979C17.5756 17.3631 17.5342 17.3354 17.4887 17.3166C17.4432 17.2978 17.3945 17.2881 17.3452 17.2881Z" fill="#FFE400"/>
<path d="M19.2766 19.2197H18.2231C18.1237 19.2197 18.0283 19.2592 17.958 19.3296C17.8877 19.3999 17.8481 19.4953 17.8481 19.5947C17.8481 19.6942 17.8877 19.7896 17.958 19.8599C18.0283 19.9302 18.1237 19.9697 18.2231 19.9697H19.2766C19.3747 19.9678 19.4683 19.9275 19.537 19.8573C19.6058 19.7872 19.6443 19.6929 19.6443 19.5947C19.6443 19.4965 19.6058 19.4022 19.537 19.3321C19.4683 19.262 19.3747 19.2216 19.2766 19.2197Z" fill="#FFE400"/>
<path d="M17.3452 20.0977C17.296 20.0976 17.2472 20.1073 17.2017 20.1262C17.1562 20.145 17.1148 20.1726 17.08 20.2075C17.0452 20.2423 17.0176 20.2836 16.9987 20.3291C16.9799 20.3746 16.9702 20.4234 16.9702 20.4727V21.5259C16.9702 21.6253 17.0097 21.7207 17.0801 21.791C17.1504 21.8614 17.2458 21.9009 17.3452 21.9009C17.4447 21.9009 17.5401 21.8614 17.6104 21.791C17.6807 21.7207 17.7202 21.6253 17.7202 21.5259V20.4727C17.7202 20.4234 17.7105 20.3746 17.6917 20.3291C17.6729 20.2836 17.6452 20.2423 17.6104 20.2075C17.5756 20.1726 17.5342 20.145 17.4887 20.1262C17.4432 20.1073 17.3945 20.0976 17.3452 20.0977Z" fill="#FFE400"/>
<path d="M16.4675 19.2197H15.4143C15.3161 19.2216 15.2225 19.2619 15.1537 19.3321C15.0849 19.4022 15.0464 19.4965 15.0464 19.5947C15.0464 19.693 15.0849 19.7873 15.1537 19.8574C15.2226 19.9275 15.3161 19.9679 15.4144 19.9697H16.4675C16.5657 19.9678 16.6593 19.9275 16.728 19.8573C16.7968 19.7872 16.8353 19.6929 16.8353 19.5947C16.8353 19.4965 16.7968 19.4022 16.728 19.3321C16.6593 19.262 16.5657 19.2216 16.4675 19.2197Z" fill="#FFE400"/>
<path d="M11.2402 17.4885L9.70399 16.9762C9.64948 16.9579 9.59995 16.9272 9.55931 16.8866C9.51867 16.8459 9.48803 16.7963 9.4698 16.7418L8.95783 15.2059C8.91919 15.0902 8.84513 14.9896 8.74613 14.9183C8.64714 14.847 8.52823 14.8086 8.40623 14.8086C8.28422 14.8086 8.16531 14.847 8.06632 14.9183C7.96733 14.9896 7.89327 15.0902 7.85462 15.2059L7.34266 16.7418C7.32436 16.7964 7.29366 16.846 7.25296 16.8868C7.21226 16.9275 7.16268 16.9582 7.1081 16.9766L5.57184 17.4885C5.45782 17.5289 5.35912 17.6036 5.28933 17.7024C5.21954 17.8012 5.18209 17.9192 5.18213 18.0402C5.18217 18.1611 5.21971 18.2791 5.28957 18.3779C5.35944 18.4766 5.45819 18.5513 5.57224 18.5916L7.10847 19.1039C7.16298 19.1222 7.2125 19.1529 7.25314 19.1935C7.29378 19.2342 7.32442 19.2837 7.34266 19.3383L7.85462 20.8742C7.89488 20.9883 7.96956 21.0871 8.06836 21.157C8.16716 21.227 8.28521 21.2645 8.40624 21.2645C8.52727 21.2645 8.64532 21.2269 8.74411 21.157C8.8429 21.0871 8.91758 20.9883 8.95783 20.8741L9.46981 19.3383C9.48812 19.2836 9.51885 19.234 9.55958 19.1933C9.60032 19.1525 9.64994 19.1218 9.70456 19.1035L11.2401 18.5919C11.3542 18.5517 11.4531 18.477 11.523 18.3782C11.593 18.2794 11.6305 18.1613 11.6305 18.0403C11.6306 17.9192 11.593 17.8012 11.5231 17.7023C11.4532 17.6035 11.3544 17.5288 11.2402 17.4885ZM9.46778 18.392C8.73292 18.5982 8.64153 19.5628 8.40613 20.1571L8.05419 19.101C7.84503 18.3638 6.88551 18.2774 6.28886 18.04L7.34502 17.6881C8.0799 17.4821 8.17071 16.5171 8.40612 15.923C8.64115 16.5179 8.73449 17.4832 9.46722 17.6877L10.5235 18.04L9.46778 18.392Z" fill="#FFE400"/>
<path d="M15.2845 12.8618L17.2808 12.1968C17.4088 12.1541 17.5201 12.0722 17.599 11.9626C17.6779 11.8531 17.7204 11.7216 17.7204 11.5866C17.7204 11.4516 17.6779 11.3201 17.5989 11.2106C17.52 11.1011 17.4086 11.0192 17.2806 10.9766L15.2849 10.3112C15.1974 10.2817 15.1178 10.2324 15.0526 10.1671C14.9873 10.1018 14.938 10.0222 14.9086 9.93469L14.2432 7.93884C14.2005 7.81076 14.1186 7.69937 14.0091 7.62043C13.8995 7.5415 13.7679 7.49902 13.6329 7.49902C13.4979 7.49902 13.3663 7.5415 13.2568 7.62043C13.1473 7.69937 13.0653 7.81076 13.0226 7.93884L12.3574 9.93469C12.328 10.0222 12.2788 10.1017 12.2135 10.1671C12.1483 10.2324 12.0688 10.2817 11.9813 10.3112L9.98565 10.9762C9.85903 11.0204 9.74929 11.1029 9.67164 11.2122C9.59399 11.3215 9.55226 11.4523 9.55225 11.5864C9.55223 11.7205 9.59392 11.8513 9.67155 11.9607C9.74918 12.07 9.85889 12.1525 9.9855 12.1968L11.9811 12.8618C12.0687 12.8912 12.1482 12.9406 12.2135 13.0059C12.2788 13.0712 12.328 13.1507 12.3574 13.2383L13.0226 15.2341C13.0669 15.3607 13.1494 15.4703 13.2588 15.5479C13.3681 15.6255 13.4989 15.6672 13.6329 15.6672C13.767 15.6672 13.8978 15.6255 14.0071 15.5479C14.1164 15.4703 14.199 15.3607 14.2432 15.2341L14.9086 13.2383C14.938 13.1508 14.9872 13.0713 15.0524 13.006C15.1176 12.9407 15.1971 12.8913 15.2845 12.8618ZM14.1971 13.001L13.6329 14.6932L13.069 13.001C13.0025 12.8032 12.8911 12.6235 12.7436 12.4759C12.596 12.3284 12.4162 12.217 12.2184 12.1506L10.5264 11.5867L12.2188 11.0223C12.4165 10.9559 12.5962 10.8445 12.7437 10.697C12.8912 10.5494 13.0025 10.3697 13.069 10.172L13.6329 8.47973L14.1971 10.172C14.2635 10.3698 14.3749 10.5495 14.5224 10.697C14.6699 10.8445 14.8496 10.9559 15.0474 11.0223L16.7395 11.5867L15.0472 12.1506C14.8495 12.2171 14.6698 12.3285 14.5223 12.476C14.3748 12.6235 14.2635 12.8032 14.1971 13.001Z" fill="#FFE400"/>
<path d="M3.64598 6.63974L4.31121 8.6356C4.35392 8.76368 4.43584 8.87508 4.54537 8.95401C4.6549 9.03295 4.78649 9.07542 4.9215 9.07542C5.05651 9.07542 5.1881 9.03295 5.29763 8.95401C5.40716 8.87508 5.48908 8.76368 5.53179 8.6356L6.19719 6.63976C6.22652 6.55228 6.27573 6.47279 6.34095 6.40753C6.40618 6.34228 6.48564 6.29303 6.57311 6.26366L8.56951 5.59825C8.69753 5.55546 8.80885 5.47349 8.88772 5.36394C8.96658 5.25439 9.009 5.12281 9.00896 4.98783C9.00892 4.85284 8.96642 4.72129 8.88749 4.61179C8.80855 4.50228 8.69718 4.42038 8.56913 4.37767L6.57347 3.7126C6.48594 3.68317 6.40642 3.63386 6.34114 3.56855C6.27585 3.50323 6.22658 3.42369 6.19719 3.33614L5.5318 1.3403C5.48753 1.21374 5.40501 1.10408 5.29567 1.02649C5.18633 0.948901 5.05557 0.907223 4.9215 0.907227C4.78742 0.90723 4.65667 0.948915 4.54733 1.02651C4.43799 1.10411 4.35548 1.21377 4.31122 1.34033L3.64599 3.33615C3.61662 3.42364 3.5674 3.50316 3.50219 3.56847C3.43697 3.63377 3.35753 3.68311 3.27008 3.71261L1.27367 4.37765C1.14714 4.42197 1.03751 4.50452 0.959961 4.61388C0.882411 4.72325 0.840777 4.85401 0.84082 4.98808C0.840864 5.12215 0.882584 5.25289 0.960204 5.36221C1.03783 5.47152 1.14751 5.554 1.27407 5.59823L3.2697 6.26327C3.35723 6.29271 3.43676 6.34202 3.50204 6.40733C3.56732 6.47265 3.61659 6.55219 3.64598 6.63974ZM3.50737 4.4238C3.70511 4.35732 3.88477 4.24595 4.03227 4.09842C4.17976 3.95089 4.29109 3.77121 4.35753 3.57345L4.9215 1.88119L5.48564 3.57345C5.5521 3.77126 5.66348 3.95097 5.81105 4.09851C5.95861 4.24604 6.13836 4.35738 6.33617 4.4238L8.0288 4.98776L6.3358 5.55209C6.13806 5.61857 5.9584 5.72994 5.8109 5.87747C5.66341 6.025 5.55208 6.20468 5.48564 6.40244L4.92149 8.09469L4.35753 6.40244C4.29107 6.20463 4.17969 6.02491 4.03213 5.87738C3.88456 5.72984 3.70482 5.6185 3.507 5.55209L1.81438 4.98776L3.50737 4.4238Z" fill="#FFE400"/>
</svg>
