<svg width="42" height="43" viewBox="0 0 42 43" fill="none" xmlns="http://www.w3.org/2000/svg">
<path d="M39.3769 21.908C39.3769 20.3972 39.2518 19.2947 38.9811 18.1514H21.377V24.9705H31.7102C31.5019 26.6651 30.3769 29.2172 27.8769 30.9321L27.8419 31.1604L33.408 35.3861L33.7936 35.4239C37.3352 32.2184 39.3769 27.5021 39.3769 21.908Z" fill="#4285F4"/>
<path d="M21.3745 39.8748C26.4369 39.8748 30.6868 38.2413 33.7911 35.4239L27.8744 30.9321C26.2911 32.0142 24.1661 32.7696 21.3745 32.7696C16.4162 32.7696 12.2079 29.5642 10.7078 25.1338L10.4879 25.1521L4.7002 29.5417L4.62451 29.7479C7.7078 35.7504 14.0411 39.8748 21.3745 39.8748Z" fill="#34A853"/>
<path d="M10.7107 25.1341C10.3149 23.9908 10.0858 22.7657 10.0858 21.4999C10.0858 20.234 10.3149 19.009 10.6899 17.8657L10.6794 17.6222L4.81913 13.1621L4.62739 13.2515C3.35662 15.7424 2.62744 18.5395 2.62744 21.4999C2.62744 24.4603 3.35662 27.2573 4.62739 29.7482L10.7107 25.1341Z" fill="#FBBC05"/>
<path d="M21.3746 10.23C24.8954 10.23 27.2703 11.7204 28.6246 12.9659L33.9162 7.9025C30.6663 4.94209 26.437 3.125 21.3746 3.125C14.0412 3.125 7.70782 7.24913 4.62451 13.2516L10.687 17.8658C12.208 13.4354 16.4163 10.23 21.3746 10.23Z" fill="#EB4335"/>
</svg>
