<svg width="70" height="76" viewBox="0 0 70 76" fill="none" xmlns="http://www.w3.org/2000/svg">
<path d="M32.5146 2.18066C33.7452 0.950115 35.8345 0.925297 37.25 2.19922L37.251 2.2002C41.765 6.23057 51.4761 12.8765 64.6035 11.0947L64.6045 11.0957C66.6576 10.8219 68.562 12.2748 68.8057 14.2666L68.8242 14.4609C69.2208 20.9691 69.138 33.3291 64.7266 45.3965C60.334 57.412 51.6588 69.1213 34.873 74.5088C18.088 69.1216 9.45204 57.4132 5.0791 45.3975C0.688589 33.3334 0.604682 20.9765 0.921875 14.4609C1.06124 12.3704 3.02229 10.8131 5.1416 11.0957V11.0947C18.273 12.8774 27.9843 6.06671 32.4873 2.20703L32.502 2.19434L32.5146 2.18066ZM34.873 17.915C23.7487 17.915 14.915 26.9136 14.915 37.873C14.9151 48.8325 23.7488 57.8311 34.873 57.8311C45.9946 57.831 54.831 48.9946 54.8311 37.873C54.8311 26.7514 45.9947 17.9151 34.873 17.915Z" fill="#FFE400" stroke="black"/>
<path d="M34.874 27.6875C38.0628 27.6877 40.1152 30.4486 40.1152 32.9297V36.46H40.6152C40.788 36.46 40.9885 36.5467 41.3184 36.7109C41.7285 36.9877 41.9954 37.2572 42.2725 37.6729C42.5435 38.0795 42.6583 38.4149 42.8271 38.7764V45.3701C42.8271 45.906 42.6985 46.2886 42.4326 46.6875L42.3955 46.7432L42.374 46.8066C42.281 47.0856 42.1504 47.1484 41.6143 47.5059C41.2154 47.7718 40.8328 47.9003 40.2969 47.9004H29.4512C28.255 47.9004 27.0801 46.972 27.0801 45.5293V38.8301C27.0801 38.342 27.0904 38.0104 27.3154 37.6729C27.5651 37.2984 27.9444 37.0332 28.4258 36.7119C28.7574 36.5468 28.9586 36.46 29.1318 36.46H29.6318V32.9297C29.6318 30.016 31.9603 27.6875 34.874 27.6875ZM34.7139 28.6016C33.7875 28.6017 32.8877 28.9695 32.1816 29.499L32.1533 29.5205L32.1279 29.5449C31.3844 30.2885 30.7216 31.2153 30.5762 32.4297H30.3867V36.46H39.042V32.9297C39.042 30.2089 36.6891 28.6016 34.7139 28.6016ZM36.3311 43.584L36.3271 43.5537L36.2012 42.5537C36.6455 42.1358 36.8109 41.5607 36.6445 40.9785C36.6005 39.9448 35.759 39.1279 34.7139 39.1279C33.6404 39.1281 32.7783 39.99 32.7783 41.0635C32.7783 41.5722 32.9301 42.1293 33.3857 42.5537L33.2607 43.5537L33.2568 43.584V43.6152C33.2568 43.9681 33.3771 44.3009 33.623 44.5469C33.869 44.7928 34.2018 44.9131 34.5547 44.9131H35.0332C35.3861 44.9131 35.7189 44.7928 35.9648 44.5469C36.2108 44.3009 36.3311 43.9681 36.3311 43.6152V43.584Z" fill="#FFE400" stroke="#FFE400"/>
</svg>
