<svg width="18" height="19" viewBox="0 0 18 19" fill="none" xmlns="http://www.w3.org/2000/svg">
    <path d="M0 7.25V16.25C0 16.8713 0.503655 17.375 1.125 17.375H4.5V6.125H1.125C0.503655 6.125 0 6.62865 0 7.25Z"
          fill="#FFFFFF"/>
    <path d="M15.9225 7.24992H12.5991C12.3085 7.24992 12.163 7.05601 12.1141 6.97252C12.0652 6.88957 11.9663 6.6682 12.1069 6.41441L13.2786 4.30448C13.5357 3.84251 13.5621 3.29924 13.3517 2.81419C13.1413 2.32859 12.726 1.97648 12.2124 1.84849L11.3862 1.64195C11.1852 1.59141 10.972 1.65568 10.832 1.81114L6.34625 6.79454C5.88098 7.31254 5.625 7.98051 5.625 8.67594V14.5624C5.625 16.1131 6.88678 17.3749 8.4375 17.3749L14.0334 17.3744C15.2968 17.3744 16.4125 16.5235 16.7459 15.3056L17.9467 9.79489C17.9819 9.64163 18 9.48453 18 9.32742C18 8.18209 17.0678 7.24992 15.9225 7.24992Z"
          fill="#FFFFFF"/>
</svg>
